<svg xmlns="http://www.w3.org/2000/svg" width="400" height="400" viewBox="0 0 400 400">
  <defs>
    <linearGradient id="bgGrad" x1="0%" y1="0%" x2="100%" y2="100%">
      <stop offset="0%" style="stop-color:#ec4899;stop-opacity:1" />
      <stop offset="100%" style="stop-color:#db2777;stop-opacity:1" />
    </linearGradient>
    <linearGradient id="skinGrad" x1="0%" y1="0%" x2="0%" y2="100%">
      <stop offset="0%" style="stop-color:#fde68a;stop-opacity:1" />
      <stop offset="100%" style="stop-color:#fcd34d;stop-opacity:1" />
    </linearGradient>
  </defs>
  
  <!-- Background -->
  <rect width="400" height="400" fill="url(#bgGrad)"/>
  
  <!-- Neck -->
  <rect x="175" y="220" width="50" height="60" fill="url(#skinGrad)" rx="10"/>
  
  <!-- Body/Dress -->
  <path d="M 150 280 Q 150 260, 175 260 L 225 260 Q 250 260, 250 280 L 270 380 Q 270 400, 250 400 L 150 400 Q 130 400, 130 380 Z" fill="#db2777"/>
  <path d="M 175 260 L 200 280 L 225 260" fill="#ec4899"/>
  
  <!-- Shoulders -->
  <ellipse cx="140" cy="280" rx="30" ry="25" fill="#db2777"/>
  <ellipse cx="260" cy="280" rx="30" ry="25" fill="#db2777"/>
  
  <!-- Face -->
  <ellipse cx="200" cy="160" rx="75" ry="85" fill="url(#skinGrad)"/>
  
  <!-- Hair - Long flowing -->
  <ellipse cx="200" cy="100" rx="90" ry="70" fill="#1e1b4b"/>
  <path d="M 110 120 Q 100 180, 120 240 Q 130 260, 140 270" fill="#1e1b4b"/>
  <path d="M 290 120 Q 300 180, 280 240 Q 270 260, 260 270" fill="#1e1b4b"/>
  <ellipse cx="150" cy="140" rx="25" ry="60" fill="#1e1b4b"/>
  <ellipse cx="250" cy="140" rx="25" ry="60" fill="#1e1b4b"/>
  
  <!-- Bangs -->
  <path d="M 125 110 Q 150 90, 175 100 Q 200 85, 225 100 Q 250 90, 275 110" fill="#1e1b4b"/>
  
  <!-- Ears -->
  <ellipse cx="125" cy="160" rx="12" ry="18" fill="#fcd34d"/>
  <ellipse cx="275" cy="160" rx="12" ry="18" fill="#fcd34d"/>
  
  <!-- Earrings -->
  <circle cx="125" cy="175" r="6" fill="#fbbf24" stroke="#f59e0b" stroke-width="1"/>
  <circle cx="275" cy="175" r="6" fill="#fbbf24" stroke="#f59e0b" stroke-width="1"/>
  
  <!-- Eyes - Bigger and expressive -->
  <ellipse cx="175" cy="155" rx="12" ry="15" fill="#ffffff"/>
  <ellipse cx="225" cy="155" rx="12" ry="15" fill="#ffffff"/>
  <circle cx="175" cy="157" r="8" fill="#1e293b"/>
  <circle cx="225" cy="157" r="8" fill="#1e293b"/>
  <circle cx="177" cy="154" r="4" fill="#ffffff"/>
  <circle cx="227" cy="154" r="4" fill="#ffffff"/>
  
  <!-- Eyelashes -->
  <path d="M 163 145 L 160 140" stroke="#1e1b4b" stroke-width="2" stroke-linecap="round"/>
  <path d="M 170 143 L 168 137" stroke="#1e1b4b" stroke-width="2" stroke-linecap="round"/>
  <path d="M 180 143 L 182 137" stroke="#1e1b4b" stroke-width="2" stroke-linecap="round"/>
  <path d="M 187 145 L 190 140" stroke="#1e1b4b" stroke-width="2" stroke-linecap="round"/>
  
  <path d="M 213 145 L 210 140" stroke="#1e1b4b" stroke-width="2" stroke-linecap="round"/>
  <path d="M 220 143 L 218 137" stroke="#1e1b4b" stroke-width="2" stroke-linecap="round"/>
  <path d="M 230 143 L 232 137" stroke="#1e1b4b" stroke-width="2" stroke-linecap="round"/>
  <path d="M 237 145 L 240 140" stroke="#1e1b4b" stroke-width="2" stroke-linecap="round"/>
  
  <!-- Eyebrows - Arched -->
  <path d="M 160 138 Q 175 132, 190 136" stroke="#1e1b4b" stroke-width="3" fill="none" stroke-linecap="round"/>
  <path d="M 210 136 Q 225 132, 240 138" stroke="#1e1b4b" stroke-width="3" fill="none" stroke-linecap="round"/>
  
  <!-- Nose - Delicate -->
  <path d="M 200 165 Q 195 175, 195 180" stroke="#d97706" stroke-width="2" fill="none" stroke-linecap="round"/>
  <path d="M 200 165 Q 205 175, 205 180" stroke="#d97706" stroke-width="2" fill="none" stroke-linecap="round"/>
  
  <!-- Lips - Fuller -->
  <path d="M 180 195 Q 200 205, 220 195" stroke="#dc2626" stroke-width="3" fill="none" stroke-linecap="round"/>
  <path d="M 180 195 Q 200 200, 220 195" fill="#ef4444" opacity="0.6"/>
  <ellipse cx="200" cy="200" rx="18" ry="6" fill="#dc2626" opacity="0.4"/>
  
  <!-- Blush -->
  <ellipse cx="155" cy="175" rx="15" ry="10" fill="#f87171" opacity="0.3"/>
  <ellipse cx="245" cy="175" rx="15" ry="10" fill="#f87171" opacity="0.3"/>
  
  <!-- Necklace -->
  <ellipse cx="200" cy="245" rx="30" ry="8" fill="none" stroke="#fbbf24" stroke-width="3"/>
  <circle cx="200" cy="253" r="8" fill="#fbbf24" stroke="#f59e0b" stroke-width="2"/>
</svg>
